<svg width="414" height="81" viewBox="0 0 414 81" fill="none" xmlns="http://www.w3.org/2000/svg">
<path d="M0.224 39.888C0.224 36.528 0.608 33.24 1.376 30.024C2.192 26.76 3.32 23.688 4.76 20.808C6.2 17.88 7.904 15.216 9.872 12.816C11.888 10.368 14.072 8.256 16.424 6.48C18.824 4.704 21.368 3.336 24.056 2.376C26.744 1.368 29.504 0.863997 32.336 0.863997C35.648 0.863997 38.216 1.56 40.04 2.952C41.912 4.344 42.848 6.288 42.848 8.784C42.848 9.744 42.704 10.728 42.416 11.736C42.176 12.744 41.792 13.752 41.264 14.76C40.784 15.72 40.208 16.656 39.536 17.568C38.864 18.48 38.12 19.272 37.304 19.944C36.056 19.752 34.976 19.2 34.064 18.288C33.152 17.328 32.576 16.224 32.336 14.976C34.016 13.584 35.336 12.144 36.296 10.656C37.304 9.12 37.808 7.728 37.808 6.48C37.808 4.368 36.488 3.312 33.848 3.312C32.744 3.312 31.592 3.552 30.392 4.032C29.24 4.464 28.064 5.088 26.864 5.904C25.664 6.72 24.488 7.704 23.336 8.856C22.232 10.008 21.2 11.28 20.24 12.672C13.568 22.272 10.232 32.088 10.232 42.12C10.232 45.672 10.784 48.528 11.888 50.688C12.992 52.848 14.456 54.12 16.28 54.504C18.344 54.024 20.96 52.704 24.128 50.544C27.296 48.384 30.752 45.576 34.496 42.12C34.976 42.6 35.264 43.104 35.36 43.632C33.968 45.456 32.528 47.208 31.04 48.888C29.552 50.568 28.064 52.104 26.576 53.496C25.136 54.888 23.696 56.112 22.256 57.168C20.864 58.224 19.568 59.04 18.368 59.616C12.416 59.52 7.904 57.816 4.832 54.504C1.76 51.192 0.224 46.32 0.224 39.888ZM48.5816 56.52C45.8456 56.232 43.6616 55.032 42.0296 52.92C40.3976 50.808 39.5816 48.12 39.5816 44.856C39.5816 42.936 39.8696 40.944 40.4456 38.88C41.0216 36.816 41.8376 34.824 42.8936 32.904C43.9496 30.936 45.1976 29.088 46.6376 27.36C48.0776 25.632 49.6376 24.144 51.3176 22.896C53.9576 20.928 56.4296 19.944 58.7336 19.944C60.2696 20.76 61.7816 22.464 63.2696 25.056C63.5096 25.056 63.7256 25.056 63.9176 25.056C64.1096 25.008 64.3256 24.984 64.5656 24.984C67.1096 24.984 68.3816 27.24 68.3816 31.752C68.3816 34.776 67.8776 37.656 66.8696 40.392C65.9096 43.08 64.5416 45.528 62.7656 47.736C61.0376 49.944 58.9496 51.816 56.5016 53.352C54.1016 54.84 51.4616 55.896 48.5816 56.52ZM52.2536 33.84C51.4376 34.944 50.6696 36.144 49.9496 37.44C49.2296 38.736 48.6056 40.056 48.0776 41.4C47.5496 42.696 47.1416 43.968 46.8536 45.216C46.5656 46.416 46.4216 47.496 46.4216 48.456C46.4216 49.608 46.6136 50.712 46.9976 51.768C47.3816 52.824 47.8136 53.424 48.2936 53.568C50.4536 53.088 52.4216 52.2 54.1976 50.904C56.0216 49.56 57.5816 47.904 58.8776 45.936C60.2216 43.968 61.2536 41.736 61.9736 39.24C62.7416 36.744 63.1256 34.08 63.1256 31.248C63.1256 30 63.0536 29.016 62.9096 28.296C62.7656 27.576 62.5256 26.952 62.1896 26.424C60.0776 27.048 58.1816 28.056 56.5016 29.448C54.8696 30.84 53.4536 32.304 52.2536 33.84ZM113.483 31.896C112.715 31.944 111.779 32.448 110.675 33.408C109.571 34.32 108.371 35.52 107.075 37.008C105.827 38.448 104.507 40.056 103.115 41.832C101.771 43.608 100.451 45.384 99.1548 47.16C97.9068 48.888 96.7308 50.52 95.6268 52.056C94.5228 53.592 93.5868 54.816 92.8188 55.728C91.7628 55.296 90.8508 54.672 90.0828 53.856C89.3148 52.992 88.7628 51.936 88.4268 50.688C88.6668 49.2 89.0028 47.664 89.4348 46.08C89.8668 44.448 90.4188 42.768 91.0908 41.04C91.8108 39.312 92.6748 37.512 93.6828 35.64C94.7388 33.72 96.0108 31.704 97.4988 29.592C96.7788 29.64 95.7948 30.168 94.5468 31.176C93.2988 32.136 91.9548 33.408 90.5148 34.992C89.0748 36.528 87.5868 38.28 86.0508 40.248C84.5148 42.168 83.0748 44.064 81.7308 45.936C79.9548 48.432 78.4668 50.616 77.2668 52.488C76.1148 54.36 75.2748 55.464 74.7468 55.8C73.4988 54.888 72.6348 53.904 72.1548 52.848C71.6748 51.792 71.3148 50.616 71.0748 49.32C71.1228 48.168 71.2908 46.728 71.5788 45C71.9148 43.272 72.3708 41.496 72.9468 39.672C74.0508 36.168 75.4668 32.688 77.1948 29.232C78.9708 25.776 80.6748 22.608 82.3068 19.728C83.6508 20.016 84.8508 20.472 85.9068 21.096C87.0108 21.72 88.1628 22.632 89.3628 23.832C88.8828 25.32 88.1388 26.904 87.1308 28.584C86.1228 30.216 85.0668 31.944 83.9628 33.768C82.8588 35.592 81.8508 37.464 80.9388 39.384C80.0268 41.304 79.4268 43.248 79.1388 45.216C80.4828 43.296 82.0668 41.088 83.8908 38.592C85.7628 36.096 87.6588 33.744 89.5788 31.536C91.5468 29.328 93.4908 27.456 95.4108 25.92C97.3308 24.384 99.0588 23.616 100.595 23.616C101.171 23.616 101.795 23.712 102.467 23.904C103.139 24.096 103.763 24.336 104.339 24.624C104.915 24.912 105.395 25.2 105.779 25.488C106.163 25.728 106.379 25.92 106.427 26.064C106.187 27.024 105.611 28.344 104.699 30.024C103.835 31.656 102.899 33.384 101.891 35.208C100.883 37.032 99.9468 38.808 99.0828 40.536C98.2188 42.216 97.7148 43.56 97.5708 44.568C99.9228 41.352 102.131 38.448 104.195 35.856C106.259 33.216 108.203 30.96 110.027 29.088C111.851 27.216 113.531 25.776 115.067 24.768C116.651 23.76 118.139 23.256 119.531 23.256C120.491 23.256 121.379 23.52 122.195 24.048C123.059 24.528 123.659 25.248 123.995 26.208C123.563 27.648 122.843 29.376 121.835 31.392C120.875 33.408 119.891 35.544 118.883 37.8C117.875 40.008 116.963 42.192 116.147 44.352C115.379 46.512 114.995 48.456 114.995 50.184C114.995 51.192 115.139 51.864 115.427 52.2C115.715 52.488 116.123 52.632 116.651 52.632C117.227 52.632 117.755 52.536 118.235 52.344C118.763 52.104 119.147 51.984 119.387 51.984C119.675 52.176 119.843 52.416 119.891 52.704C119.939 52.992 119.963 53.256 119.963 53.496C119.003 54.264 118.019 54.888 117.011 55.368C116.003 55.896 114.875 56.16 113.627 56.16C112.475 56.16 111.515 55.968 110.747 55.584C110.027 55.2 109.427 54.672 108.947 54C108.467 53.328 108.131 52.56 107.939 51.696C107.747 50.832 107.651 49.896 107.651 48.888C107.651 47.256 107.867 45.648 108.299 44.064C108.731 42.432 109.235 40.896 109.811 39.456C110.435 37.968 111.083 36.6 111.755 35.352C112.427 34.056 113.003 32.904 113.483 31.896ZM121.666 77.832C120.994 77.64 120.61 76.92 120.514 75.672C120.322 75.048 120.178 74.304 120.082 73.44C120.034 72.576 120.01 71.592 120.01 70.488C120.01 69.48 120.178 68.088 120.514 66.312C120.85 64.584 121.306 62.616 121.882 60.408C122.506 58.2 123.25 55.824 124.114 53.28C124.978 50.688 125.938 48.072 126.994 45.432C128.29 42.12 129.418 39.264 130.378 36.864C131.338 34.416 132.13 32.304 132.754 30.528C133.426 28.752 133.954 27.288 134.338 26.136C134.77 24.984 135.106 24 135.346 23.184C135.538 22.608 135.826 21.912 136.21 21.096C136.594 20.28 137.026 19.464 137.506 18.648C138.034 17.784 138.562 16.992 139.09 16.272C139.618 15.504 140.098 14.928 140.53 14.544C142.21 14.784 143.794 15.216 145.282 15.84C146.77 16.464 147.682 17.064 148.018 17.64C147.346 18.264 146.578 19.248 145.714 20.592C144.85 21.888 144.01 23.328 143.194 24.912C142.378 26.448 141.634 28.032 140.962 29.664C140.29 31.296 139.786 32.736 139.45 33.984C139.93 33.168 140.554 32.28 141.322 31.32C142.09 30.36 143.266 29.04 144.85 27.36C146.626 25.536 148.282 24.144 149.818 23.184C151.402 22.176 152.77 21.672 153.922 21.672C155.746 21.672 157.234 22.176 158.386 23.184C159.586 24.192 160.186 25.488 160.186 27.072C160.186 30.528 159.61 33.96 158.458 37.368C157.306 40.728 155.65 43.776 153.49 46.512C152.674 47.568 151.714 48.576 150.61 49.536C149.506 50.496 148.354 51.36 147.154 52.128C145.954 52.848 144.778 53.424 143.626 53.856C142.474 54.288 141.442 54.504 140.53 54.504C139.666 54.504 138.898 54.336 138.226 54C137.602 53.616 137.17 53.16 136.93 52.632C138.802 51.528 140.626 49.992 142.402 48.024C144.178 46.056 145.81 43.8 147.298 41.256C148.834 38.664 150.154 35.88 151.258 32.904C152.41 29.928 153.274 26.904 153.85 23.832C152.026 24.792 150.37 25.848 148.882 27C147.442 28.104 146.002 29.568 144.562 31.392C142.834 33.504 141.466 35.208 140.458 36.504C139.45 37.8 138.609 38.904 137.938 39.816C137.314 40.728 136.786 41.592 136.354 42.408C135.97 43.176 135.538 44.136 135.058 45.288C134.386 46.824 133.594 48.864 132.682 51.408C131.818 53.904 130.906 56.712 129.946 59.832C129.034 62.952 128.098 66.264 127.138 69.768C126.226 73.32 125.338 76.848 124.474 80.352C123.946 80.256 123.49 79.872 123.106 79.2C122.722 78.768 122.434 78.456 122.242 78.264C122.098 78.072 121.906 77.928 121.666 77.832ZM187.621 24.912C188.101 24.912 188.653 25.008 189.277 25.2C189.949 25.344 190.549 25.56 191.077 25.848C191.605 26.088 192.037 26.352 192.373 26.64C192.757 26.928 192.949 27.192 192.949 27.432C191.989 29.448 191.101 31.488 190.285 33.552C189.469 35.568 188.773 37.512 188.197 39.384C187.621 41.256 187.165 43.008 186.829 44.64C186.541 46.272 186.397 47.688 186.397 48.888C186.397 50.232 186.541 51.36 186.829 52.272C187.117 53.136 187.597 53.76 188.269 54.144C187.693 54.528 186.949 54.84 186.037 55.08C185.125 55.32 184.309 55.44 183.589 55.44C180.997 55.44 179.701 53.664 179.701 50.112C179.701 47.376 180.613 43.632 182.437 38.88C181.477 41.088 180.373 43.176 179.125 45.144C177.877 47.064 176.605 48.768 175.309 50.256C174.013 51.744 172.693 52.968 171.349 53.928C170.053 54.84 168.853 55.392 167.749 55.584C165.973 55.488 164.533 54.648 163.429 53.064C162.325 51.432 161.773 49.368 161.773 46.872C161.773 44.184 162.349 41.352 163.501 38.376C164.653 35.4 166.117 32.64 167.893 30.096C169.717 27.552 171.685 25.44 173.797 23.76C175.909 22.032 177.949 21.12 179.917 21.024C180.397 21.168 180.925 21.456 181.501 21.888C182.125 22.32 182.701 22.824 183.229 23.4C183.805 23.976 184.285 24.576 184.669 25.2C185.053 25.776 185.269 26.28 185.317 26.712C183.397 27 181.405 27.936 179.341 29.52C177.325 31.104 175.477 33.024 173.797 35.28C172.165 37.488 170.821 39.864 169.765 42.408C168.709 44.952 168.181 47.328 168.181 49.536C168.181 50.448 168.517 51.024 169.189 51.264C170.581 50.976 172.189 49.8 174.013 47.736C175.837 45.624 178.045 42.384 180.637 38.016C181.117 37.152 181.645 36.192 182.221 35.136C182.845 34.08 183.469 32.976 184.093 31.824C184.717 30.672 185.317 29.52 185.893 28.368C186.517 27.168 187.093 26.016 187.621 24.912ZM208.265 19.08C209.513 19.464 210.689 20.328 211.793 21.672C212.897 22.968 213.713 24.408 214.241 25.992C213.713 27.288 212.897 28.848 211.793 30.672C210.689 32.496 209.585 34.368 208.481 36.288C207.377 38.16 206.369 39.96 205.457 41.688C204.593 43.368 204.089 44.76 203.945 45.864C204.713 45.048 205.553 44.112 206.465 43.056C207.425 41.952 208.337 40.872 209.201 39.816C210.113 38.712 210.953 37.728 211.721 36.864C212.489 35.952 213.089 35.28 213.521 34.848C214.433 33.888 215.513 32.784 216.761 31.536C218.009 30.24 219.305 29.04 220.649 27.936C222.041 26.784 223.433 25.824 224.825 25.056C226.217 24.24 227.489 23.832 228.641 23.832C229.889 23.832 230.921 24.264 231.737 25.128C232.601 25.944 233.273 26.808 233.753 27.72C233.753 27.816 233.561 27.96 233.177 28.152C232.841 28.296 232.337 28.752 231.665 29.52C230.993 30.384 230.225 31.584 229.361 33.12C228.545 34.608 227.729 36.24 226.913 38.016C226.145 39.744 225.497 41.52 224.969 43.344C224.441 45.168 224.177 46.824 224.177 48.312C224.177 49.512 224.321 50.28 224.609 50.616C224.945 50.952 225.401 51.12 225.977 51.12C226.505 51.12 227.057 51 227.633 50.76C228.209 50.52 228.665 50.4 229.001 50.4C229.193 50.496 229.337 50.712 229.433 51.048C229.577 51.336 229.649 51.6 229.649 51.84C229.265 52.176 228.809 52.512 228.281 52.848C227.753 53.184 227.201 53.496 226.625 53.784C226.049 54.072 225.473 54.312 224.897 54.504C224.369 54.696 223.889 54.792 223.457 54.792C222.065 54.792 220.913 54.576 220.001 54.144C219.137 53.76 218.441 53.232 217.913 52.56C217.433 51.888 217.097 51.096 216.905 50.184C216.713 49.224 216.617 48.216 216.617 47.16C216.617 46.584 216.665 45.936 216.761 45.216C216.857 44.496 217.049 43.656 217.337 42.696C217.625 41.688 218.033 40.512 218.561 39.168C219.089 37.776 219.761 36.12 220.577 34.2C220.481 34.2 219.833 34.536 218.633 35.208C217.433 35.88 216.137 36.912 214.745 38.304C212.489 40.464 210.449 42.6 208.625 44.712C206.849 46.824 205.025 49.176 203.153 51.768C202.097 53.256 201.161 54.504 200.345 55.512C199.577 56.568 198.905 57.264 198.329 57.6C197.321 57.024 196.577 56.208 196.097 55.152C195.617 54.144 195.257 53.088 195.017 51.984C195.017 51.072 195.137 49.92 195.377 48.528C195.665 47.136 196.025 45.6 196.457 43.92C196.937 42.192 197.513 40.392 198.185 38.52C198.857 36.648 199.601 34.776 200.417 32.904C202.241 28.68 203.897 25.368 205.385 22.968C206.921 20.568 207.881 19.272 208.265 19.08ZM262.556 42.84C261.452 46.344 260.348 49.536 259.244 52.416C258.14 55.296 256.964 57.936 255.716 60.336C254.468 62.784 253.124 65.016 251.684 67.032C250.244 69.096 248.66 71.04 246.932 72.864C244.724 75.168 242.444 76.92 240.092 78.12C237.74 79.368 235.388 79.992 233.036 79.992C231.836 79.992 230.636 79.848 229.436 79.56C228.284 79.32 227.204 78.96 226.196 78.48C225.14 78.048 224.228 77.52 223.46 76.896C222.644 76.32 222.068 75.696 221.732 75.024C221.732 74.448 222.068 73.944 222.74 73.512C223.316 74.04 223.796 74.448 224.18 74.736C224.564 75.024 224.948 75.264 225.332 75.456C225.668 75.648 226.052 75.768 226.484 75.816C226.868 75.864 227.324 75.888 227.852 75.888C230.588 75.888 233.252 75.072 235.844 73.44C238.484 71.856 240.956 69.576 243.26 66.6C245.612 63.672 247.748 60.096 249.668 55.872C251.588 51.696 253.22 47.016 254.564 41.832C253.94 42.792 253.172 43.968 252.26 45.36C251.348 46.752 250.34 48.144 249.236 49.536C248.132 50.88 246.98 52.104 245.78 53.208C244.628 54.312 243.5 55.056 242.396 55.44C241.628 55.392 240.812 55.224 239.948 54.936C239.132 54.696 238.34 54.336 237.572 53.856C236.852 53.376 236.204 52.8 235.628 52.128C235.052 51.456 234.668 50.688 234.476 49.824C234.476 48.432 234.524 47.328 234.62 46.512C234.716 45.648 234.884 44.712 235.124 43.704C235.556 41.88 236.18 39.816 236.996 37.512C237.86 35.208 238.844 32.952 239.948 30.744C241.1 28.488 242.348 26.4 243.692 24.48C245.084 22.512 246.524 20.976 248.012 19.872C248.396 19.872 248.876 19.92 249.452 20.016C250.028 20.064 250.628 20.184 251.252 20.376C251.876 20.568 252.476 20.808 253.052 21.096C253.628 21.336 254.132 21.672 254.564 22.104C254.036 22.584 252.884 24.192 251.108 26.928C249.332 29.664 247.364 33.6 245.204 38.736C244.964 39.264 244.676 40.032 244.34 41.04C244.004 42.048 243.668 43.104 243.332 44.208C243.044 45.312 242.78 46.392 242.54 47.448C242.3 48.504 242.18 49.344 242.18 49.968C242.18 50.352 242.228 50.64 242.324 50.832C242.468 51.024 242.588 51.168 242.684 51.264C243.548 51.12 244.7 50.424 246.14 49.176C247.58 47.88 249.212 45.888 251.036 43.2C252.188 41.472 253.244 39.768 254.204 38.088C255.164 36.36 256.1 34.632 257.012 32.904C257.972 31.176 258.956 29.4 259.964 27.576C260.972 25.752 262.052 23.88 263.204 21.96C263.828 21.96 264.5 22.032 265.22 22.176C265.94 22.32 266.636 22.512 267.308 22.752C267.98 22.944 268.556 23.184 269.036 23.472C269.564 23.712 269.948 23.976 270.188 24.264C268.7 27.432 267.308 30.528 266.012 33.552C264.716 36.576 263.564 39.672 262.556 42.84ZM314.939 49.896C316.139 51.96 316.739 53.952 316.739 55.872C316.739 56.304 316.691 56.688 316.595 57.024C316.547 57.408 316.475 57.792 316.379 58.176C315.563 58.08 314.699 58.008 313.787 57.96C312.923 57.912 312.011 57.888 311.051 57.888C309.899 57.888 308.723 57.912 307.523 57.96C306.371 58.056 305.075 58.176 303.635 58.32C302.195 58.464 300.587 58.656 298.811 58.896C297.035 59.136 294.971 59.448 292.619 59.832C291.515 59.448 290.411 58.68 289.307 57.528C288.203 56.424 287.171 55.08 286.211 53.496C286.691 52.44 287.291 51.144 288.011 49.608C288.731 48.024 289.571 46.128 290.531 43.92C291.491 41.664 292.547 39.048 293.699 36.072C294.899 33.048 296.171 29.568 297.515 25.632C298.379 23.04 299.123 20.76 299.747 18.792C300.371 16.824 300.923 14.928 301.403 13.104C301.931 11.232 302.435 9.288 302.915 7.272C303.395 5.256 303.923 2.928 304.499 0.287996C306.419 0.671997 308.075 1.392 309.467 2.448C310.907 3.456 312.275 4.92 313.571 6.84C313.187 7.464 312.683 8.472 312.059 9.864C311.435 11.256 310.691 12.96 309.827 14.976C309.011 16.944 308.099 19.2 307.091 21.744C306.083 24.24 305.027 26.928 303.923 29.808C302.867 32.64 301.835 35.304 300.827 37.8C299.819 40.296 298.907 42.552 298.091 44.568C297.323 46.584 296.699 48.312 296.219 49.752C295.739 51.192 295.499 52.272 295.499 52.992C296.267 52.944 296.963 52.896 297.587 52.848C298.211 52.8 298.859 52.728 299.531 52.632C300.203 52.488 300.923 52.344 301.691 52.2C302.507 52.008 303.467 51.768 304.571 51.48C305.531 51.24 306.419 51.048 307.235 50.904C308.051 50.712 308.843 50.568 309.611 50.472C310.427 50.328 311.243 50.232 312.059 50.184C312.923 50.088 313.883 49.992 314.939 49.896ZM329.128 56.52C326.392 56.232 324.208 55.032 322.576 52.92C320.944 50.808 320.128 48.12 320.128 44.856C320.128 42.936 320.416 40.944 320.992 38.88C321.568 36.816 322.384 34.824 323.44 32.904C324.496 30.936 325.744 29.088 327.184 27.36C328.624 25.632 330.184 24.144 331.864 22.896C334.504 20.928 336.976 19.944 339.28 19.944C340.816 20.76 342.328 22.464 343.816 25.056C344.056 25.056 344.272 25.056 344.464 25.056C344.656 25.008 344.872 24.984 345.112 24.984C347.656 24.984 348.928 27.24 348.928 31.752C348.928 34.776 348.424 37.656 347.416 40.392C346.456 43.08 345.088 45.528 343.312 47.736C341.584 49.944 339.496 51.816 337.048 53.352C334.648 54.84 332.008 55.896 329.128 56.52ZM332.8 33.84C331.984 34.944 331.216 36.144 330.496 37.44C329.776 38.736 329.152 40.056 328.624 41.4C328.096 42.696 327.688 43.968 327.4 45.216C327.112 46.416 326.968 47.496 326.968 48.456C326.968 49.608 327.16 50.712 327.544 51.768C327.928 52.824 328.36 53.424 328.84 53.568C331 53.088 332.968 52.2 334.744 50.904C336.568 49.56 338.128 47.904 339.424 45.936C340.768 43.968 341.8 41.736 342.52 39.24C343.288 36.744 343.672 34.08 343.672 31.248C343.672 30 343.6 29.016 343.456 28.296C343.312 27.576 343.072 26.952 342.736 26.424C340.624 27.048 338.728 28.056 337.048 29.448C335.416 30.84 334 32.304 332.8 33.84ZM337.87 75.456C337.87 75.168 337.966 74.904 338.158 74.664C338.35 74.424 338.566 74.184 338.806 73.944C339.382 74.472 339.886 74.88 340.318 75.168C340.702 75.456 341.086 75.696 341.47 75.888C341.806 76.08 342.166 76.2 342.55 76.248C342.934 76.296 343.39 76.32 343.918 76.32C346.414 76.32 348.79 75.648 351.046 74.304C353.302 73.008 355.414 71.112 357.382 68.616C359.398 66.12 361.222 63.072 362.854 59.472C364.486 55.872 365.926 51.792 367.174 47.232C366.598 47.808 365.878 48.456 365.014 49.176C364.198 49.848 363.334 50.496 362.422 51.12C361.51 51.744 360.598 52.32 359.686 52.848C358.822 53.376 358.078 53.76 357.454 54C356.638 53.856 355.87 53.52 355.15 52.992C354.478 52.416 353.878 51.72 353.35 50.904C352.822 50.088 352.414 49.176 352.126 48.168C351.838 47.112 351.694 46.008 351.694 44.856C351.694 42.984 352.03 41.064 352.702 39.096C353.422 37.128 354.358 35.208 355.51 33.336C356.662 31.416 358.006 29.616 359.542 27.936C361.126 26.256 362.782 24.792 364.51 23.544C366.286 22.296 368.062 21.312 369.838 20.592C371.662 19.824 373.438 19.44 375.166 19.44C376.846 19.44 378.094 19.8 378.91 20.52C379.774 21.192 380.398 22.368 380.782 24.048C380.254 23.76 379.582 23.616 378.766 23.616C377.614 23.616 376.27 24.072 374.734 24.984C373.246 25.896 371.71 27.096 370.126 28.584C368.59 30.024 367.054 31.704 365.518 33.624C363.982 35.496 362.614 37.416 361.414 39.384C360.262 41.352 359.302 43.272 358.534 45.144C357.814 47.016 357.454 48.696 357.454 50.184C357.454 50.52 357.478 50.736 357.526 50.832C357.574 50.88 357.646 50.904 357.742 50.904C358.174 50.904 358.75 50.664 359.47 50.184C360.238 49.704 361.078 49.104 361.99 48.384C362.95 47.616 363.934 46.752 364.942 45.792C365.95 44.784 366.91 43.776 367.822 42.768C369.886 40.464 371.758 37.896 373.438 35.064C375.166 32.184 376.534 29.4 377.542 26.712C378.838 26.808 379.99 27.024 380.998 27.36C382.006 27.696 382.702 28.056 383.086 28.44C381.454 32.184 380.134 35.328 379.126 37.872C378.166 40.416 377.326 42.672 376.606 44.64C375.31 48.096 374.086 51.24 372.934 54.072C371.83 56.952 370.678 59.592 369.478 61.992C368.326 64.44 367.054 66.696 365.662 68.76C364.318 70.872 362.782 72.888 361.054 74.808C360.238 75.72 359.302 76.512 358.246 77.184C357.238 77.904 356.182 78.504 355.078 78.984C354.022 79.464 352.966 79.824 351.91 80.064C350.902 80.304 349.966 80.424 349.102 80.424C347.95 80.424 346.774 80.28 345.574 79.992C344.374 79.752 343.27 79.392 342.262 78.912C341.206 78.48 340.294 77.952 339.526 77.328C338.758 76.752 338.206 76.128 337.87 75.456ZM393.324 56.52C390.588 56.232 388.404 55.032 386.772 52.92C385.14 50.808 384.324 48.12 384.324 44.856C384.324 42.936 384.612 40.944 385.188 38.88C385.764 36.816 386.58 34.824 387.636 32.904C388.692 30.936 389.94 29.088 391.38 27.36C392.82 25.632 394.38 24.144 396.06 22.896C398.7 20.928 401.172 19.944 403.476 19.944C405.012 20.76 406.524 22.464 408.012 25.056C408.252 25.056 408.468 25.056 408.66 25.056C408.852 25.008 409.068 24.984 409.308 24.984C411.852 24.984 413.124 27.24 413.124 31.752C413.124 34.776 412.62 37.656 411.612 40.392C410.652 43.08 409.284 45.528 407.508 47.736C405.78 49.944 403.692 51.816 401.244 53.352C398.844 54.84 396.204 55.896 393.324 56.52ZM396.996 33.84C396.18 34.944 395.412 36.144 394.692 37.44C393.972 38.736 393.348 40.056 392.82 41.4C392.292 42.696 391.884 43.968 391.596 45.216C391.308 46.416 391.164 47.496 391.164 48.456C391.164 49.608 391.356 50.712 391.74 51.768C392.124 52.824 392.556 53.424 393.036 53.568C395.196 53.088 397.164 52.2 398.94 50.904C400.764 49.56 402.324 47.904 403.62 45.936C404.964 43.968 405.996 41.736 406.716 39.24C407.484 36.744 407.868 34.08 407.868 31.248C407.868 30 407.796 29.016 407.652 28.296C407.508 27.576 407.268 26.952 406.932 26.424C404.82 27.048 402.924 28.056 401.244 29.448C399.612 30.84 398.196 32.304 396.996 33.84Z" fill="#94A3B8"/>
</svg>
